<?xml version="1.0" encoding="UTF-8" standalone="no"?>
<svg width="48px" height="48px" viewBox="0 0 48 48" version="1.1" xmlns="http://www.w3.org/2000/svg" xmlns:xlink="http://www.w3.org/1999/xlink">
    <!-- Generator: Sketch 3.8.3 (29802) - http://www.bohemiancoding.com/sketch -->
    <title>filter-applied</title>
    <desc>Created with Sketch.</desc>
    <defs></defs>
    <g id="Page-1" stroke="none" stroke-width="1" fill="none" fill-rule="evenodd">
        <g id="filter-applied">
            <path d="M9.59521484,14.9000547 C9.59521484,14.9000547 10.2702637,13.0162656 14,13.0162656 C17.7297363,13.0162656 19.0952148,14.5162656 19.0952148,14.5162656 C19.0952148,14.5162656 20.5783691,13.0162656 24,13.0162656 C27.4216309,13.0162657 29.4648438,14.0162656 29.4648438,14.0162656 C29.4648438,14.0162656 31.7887932,12.9597203 33.8588867,13.0162656 C35.9289802,12.7822837 38.2148438,15.1500547 38.2148438,15.1500547 L24.0849609,20.7804258 L9.59521484,14.9000547 Z" id="Path-74" stroke="#9E6C64" fill="#9E6C64"></path>
            <path d="M38,15.0122487 C35.9887686,15.0122487 36.2577702,17.0122487 34,17.0122487 C31.7422298,17.0122487 31.5,15.0122487 29,15.0122487 C26.5,15.0122487 26.5,17.0122488 24,17.0122488 C21.5,17.0122488 21.5,15.0122487 19,15.0122487 C16.5,15.0122487 16.1048885,17.0122487 14,17.0122487 C11.8951115,17.0122487 12.0161132,15.0122487 10,15.0122487 C7.98388677,15.0122487 6.59767756,17.224034 6.59767756,17.224034 C6.26758936,17.659353 6.23732916,18.3890087 6.53764343,18.8657576 L16,33.8872487 L32,33.8872487 L41.4623566,18.8657576 C41.7592888,18.3943777 41.7350853,17.6443898 41.4012249,17.224034 C41.4012249,17.224034 40.0112314,15.0122487 38,15.0122487 Z" id="Path-70" stroke="#4A4A4A" stroke-width="3" fill="#F6F2F2"></path>
        </g>
    </g>
</svg>