<?xml version="1.0" encoding="UTF-8" standalone="no"?>
<svg width="128px" height="128px" viewBox="0 0 128 128" version="1.1" xmlns="http://www.w3.org/2000/svg" xmlns:xlink="http://www.w3.org/1999/xlink">
    <!-- Generator: Sketch 3.8.3 (29802) - http://www.bohemiancoding.com/sketch -->
    <title>coffee-pour-svg</title>
    <desc>Created with Sketch.</desc>
    <defs>
        <path d="M80,48.0074199 C80,46.3464677 81.3486445,45 83.0003297,45 L90,45 L90,75.9943542 C90,78.7588961 87.7558048,81 85,81 L80,81 L80,48.0074199 Z" id="path-1"></path>
        <mask id="mask-2" maskContentUnits="userSpaceOnUse" maskUnits="objectBoundingBox" x="-2" y="-2" width="14" height="40">
            <rect x="78" y="43" width="14" height="40" fill="white"></rect>
            <use xlink:href="#path-1" fill="black"></use>
        </mask>
    </defs>
    <g id="Page-1" stroke="none" stroke-width="1" fill="none" fill-rule="evenodd">
        <g id="coffee-pour-svg">
            <g id="pot">
                <g id="handle">
                    <use stroke="#CD4455" stroke-width="2" xlink:href="#path-1"></use>
                    <use stroke="#4A4A4A" mask="url(#mask-2)" stroke-width="4" xlink:href="#path-1"></use>
                </g>
                <polygon id="container" stroke="#4A4A4A" stroke-width="3" fill="#F6F2F2" points="44.5 42.5 46.5 47.5 46.5 92.5 81.5 92.5 81.5 42.5"></polygon>
                <rect id="coffee" fill="#9E6C64" x="66" y="53" width="10" height="39"></rect>
                <path d="M71,46 C76,46 76,49 76,49 L76,92 L66,92 L66,49 C66,49 66,46 71,46 Z" id="meter" stroke="#4A4A4A" stroke-width="2"></path>
                <path d="M68,55.5 L73,55.5" id="mark-four" stroke="#4A4A4A"></path>
                <path d="M68,65.5 L73,65.5" id="mark-three" stroke="#4A4A4A"></path>
                <path d="M68,75.5 L73,75.5" id="mark-two" stroke="#4A4A4A"></path>
                <path d="M68,85.5 L73,85.5" id="mark-one" stroke="#4A4A4A"></path>
                <polygon id="lid" stroke="#4A4A4A" stroke-width="3" fill="#CD4455" points="40.6428571 33.5 83.5 33.5 83.5 41 46.5 41 46.5 48.5 33.5 48.5"></polygon>
                <polygon id="hinge" stroke="#4A4A4A" fill="#9B9B9B" points="80.7530734 38.5 85.2115385 38.5 85.2115385 44.5 80.5 44.5"></polygon>
            </g>
            <polygon id="drop-one" stroke="#9E6C64" fill="#9E6C64" opacity="0" points="34.8642578 92 33 98.2207031 35.2089844 101.341797 36.940918 98.2587891"></polygon>
            <polygon id="drop-two" stroke="#9E6C64" fill="#9E6C64" opacity="0" points="28.8642578 80 27 86.2207031 29.2089844 89.3417969 30.940918 86.2587891"></polygon>
            <polygon id="drop-three" stroke="#9E6C64" fill="#9E6C64" opacity="0" points="34.8051758 71 32.940918 77.2207031 35.1499023 80.3417969 36.8818359 77.2587891"></polygon>
            <polygon id="drop-four" stroke="#9E6C64" fill="#9E6C64" opacity="0" points="26.8642578 66 25 72.2207031 27.2089844 75.3417969 28.940918 72.2587891"></polygon>
            <polygon id="drop-five" stroke="#9E6C64" fill="#9E6C64" opacity="0" points="30.8642578 57 29 63.2207031 31.2089844 66.3417969 32.940918 63.2587891"></polygon>
            <polygon id="drop-six" stroke="#9E6C64" fill="#9E6C64" opacity="0" transform="translate(30.970459, 51.670898) rotate(64.000000) translate(-30.970459, -51.670898) " points="30.8642578 47 29 53.2207031 31.2089844 56.3417969 32.940918 53.2587891"></polygon>
            <polygon id="drop-seven" stroke="#9E6C64" fill="#9E6C64" opacity="0" transform="translate(40.008850, 45.041921) rotate(83.000000) translate(-40.008850, -45.041921) " points="39.9026488 40.3710221 38.038391 46.5917252 40.2473754 49.712819 41.9793089 46.6298112"></polygon>
            <polygon id="drop-eight" stroke="#9E6C64" fill="#9E6C64" opacity="0" transform="translate(22.970459, 59.670898) rotate(15.000000) translate(-22.970459, -59.670898) " points="22.8642578 55 21 61.2207031 23.2089844 64.3417969 24.940918 61.2587891"></polygon>
        </g>
    </g>
</svg>